<svg xmlns="http://www.w3.org/2000/svg" width="93.53" height="34.193" viewBox="0 0 93.53 34.193">
    <path data-name="Path 25413" d="M244.928 157.243a1.918 1.918 0 0 0-.747.13.473.473 0 0 0-.336.425.4.4 0 0 0 .164.342 1 1 0 0 0 .4.185 2.515 2.515 0 0 0 .514.048 1.8 1.8 0 0 0 .774-.137.445.445 0 0 0 0-.856 1.946 1.946 0 0 0-.769-.137zm-1.928.527a1.6 1.6 0 0 1 .541-1.247 2.055 2.055 0 0 1 1.37-.452 2.233 2.233 0 0 1 1.151.274 1.535 1.535 0 0 1 .616.685 1.884 1.884 0 0 1 .185.808 1.644 1.644 0 0 1-.507 1.253 2.007 2.007 0 0 1-1.37.486 2.055 2.055 0 0 1-1.445-.507 1.726 1.726 0 0 1-.541-1.3zm2.856 3.98.87-.11a1.741 1.741 0 0 1 .1.349 2.845 2.845 0 0 1 .041.5 1.836 1.836 0 0 1-.493 1.329 1.959 1.959 0 0 1-1.37.486 2.1 2.1 0 0 1-1.007-.233 1.733 1.733 0 0 1-.685-.685 2.24 2.24 0 0 1-.26-1.069 2.611 2.611 0 0 1 .041-.411 1.56 1.56 0 0 1 .082-.322l.877.164a1.156 1.156 0 0 1-.062.212 1.9 1.9 0 0 0 0 .3.829.829 0 0 0 .281.63 1.274 1.274 0 0 0 1.479 0 .8.8 0 0 0 .26-.616 1.239 1.239 0 0 0-.089-.521zm1.007 5.548a.685.685 0 0 1-.205.486.781.781 0 0 1-.514.185.726.726 0 0 1-.514-.2.685.685 0 0 1-.205-.473.644.644 0 0 1 .2-.486.747.747 0 0 1 .521-.192.788.788 0 0 1 .521.185.685.685 0 0 1 .233.493zm-1.37 4.274H245a1.439 1.439 0 0 0 .123.63.479.479 0 0 0 .445.267.486.486 0 0 0 .329-.116.377.377 0 0 0 .11-.274.548.548 0 0 0-.13-.342.521.521 0 0 0-.356-.164zm-.884-1.1h1.781a4.107 4.107 0 0 0 .473-.069v1.041l-.432.089a1.178 1.178 0 0 1 .329.438 1.37 1.37 0 0 1 .1.541 1.1 1.1 0 0 1-.336.808 1.144 1.144 0 0 1-.808.3 1.206 1.206 0 0 1-.8-.267 1.568 1.568 0 0 1-.459-.685 3.227 3.227 0 0 1-.151-1 .493.493 0 0 0-.349.123.685.685 0 0 0-.137.473 1.7 1.7 0 0 0 .068.5 1.8 1.8 0 0 0 .185.418l-.753.212a2.384 2.384 0 0 1-.212-.527 3.254 3.254 0 0 1-.11-.836 1.705 1.705 0 0 1 .233-.938 1.185 1.185 0 0 1 .589-.466 2.137 2.137 0 0 1 .786-.158zm-1.527 7.13h-.685l-.322-1.144h1v-.774h.836v.774h1.4a.794.794 0 0 0 .459-.1.356.356 0 0 0 .13-.315 1.211 1.211 0 0 0 0-.164 1.115 1.115 0 0 0 0-.137h.89a1.286 1.286 0 0 1 .062.295 2.56 2.56 0 0 1 0 .418 1.123 1.123 0 0 1-.267.808 1.069 1.069 0 0 1-.582.3 2.369 2.369 0 0 1-.548.048h-1.548v.459h-.836zm.068 2.685h3.747v1.144h-3.712zm-1.014 0a.562.562 0 0 1 .425.171.568.568 0 0 1 .164.425.61.61 0 0 1-.171.425.555.555 0 0 1-.418.164.6.6 0 0 1-.425-1.021.555.555 0 0 1 .425-.2zm2.432 5.8h.747a.685.685 0 0 0 .466-.164.486.486 0 0 0 .158-.349.5.5 0 0 0-.26-.452 1.534 1.534 0 0 0-.76-.158 1.432 1.432 0 0 0-.685.151.514.514 0 0 0-.274.459.459.459 0 0 0 .164.349.685.685 0 0 0 .445.13zm-1.1 0a1.371 1.371 0 0 1-.342-.4 1.315 1.315 0 0 1-.13-.569 1.151 1.151 0 0 1 .527-.966 2.3 2.3 0 0 1 1.322-.349 2.685 2.685 0 0 1 1.116.212 1.582 1.582 0 0 1 .685.541 1.3 1.3 0 0 1 .226.733 1 1 0 0 1-.541.932l.541.075v.979h-5.391v-1.158zm1.459 4.706a1.918 1.918 0 0 0-.747.13.473.473 0 0 0-.336.425.4.4 0 0 0 .164.342 1 1 0 0 0 .4.185 2.514 2.514 0 0 0 .514.048 1.8 1.8 0 0 0 .774-.137.479.479 0 0 0 .315-.438.466.466 0 0 0-.322-.418 1.945 1.945 0 0 0-.767-.171zm-1.932.527a1.6 1.6 0 0 1 .541-1.247 2.055 2.055 0 0 1 1.37-.452 2.3 2.3 0 0 1 1.151.267 1.589 1.589 0 0 1 .616.685 1.884 1.884 0 0 1 .185.808 1.658 1.658 0 0 1-.507 1.253 2.007 2.007 0 0 1-1.37.486 2.055 2.055 0 0 1-1.445-.507 1.74 1.74 0 0 1-.541-1.329zm.082 5.795h-.685l-.322-1.151h1v-.836h.836v.774h1.4a.794.794 0 0 0 .459-.1.356.356 0 0 0 .13-.315 1.211 1.211 0 0 0 0-.164 1.115 1.115 0 0 0 0-.137h.89a1.287 1.287 0 0 1 .062.295 2.56 2.56 0 0 1 0 .418 1.123 1.123 0 0 1-.267.808 1.069 1.069 0 0 1-.582.3 2.89 2.89 0 0 1-.548.055h-1.548v.452h-.836zm0 2.384h1.116a.33.33 0 0 0 0 .123v.158a.767.767 0 0 0 .11.411.589.589 0 0 0 .356.26.534.534 0 0 0 .158.034h2.075v1.158h-3.74v-.993l.616-.048a1.37 1.37 0 0 1-.527-.418.884.884 0 0 1-.164-.486v-.137zm2.425 5.795h-.486a1.37 1.37 0 0 0 .123.623.479.479 0 0 0 .445.267.425.425 0 0 0 .329-.116.37.37 0 0 0 .11-.274.527.527 0 0 0-.13-.336.521.521 0 0 0-.37-.2zm-.911-1.13h1.781a4.288 4.288 0 0 0 .521-.13v1.041l-.432.075a1.2 1.2 0 0 1 .329.445 1.37 1.37 0 0 1 .1.534 1.089 1.089 0 0 1-.336.808 1.185 1.185 0 0 1-.808.308 1.281 1.281 0 0 1-.8-.267 1.6 1.6 0 0 1-.459-.685 3.26 3.26 0 0 1-.151-1 .459.459 0 0 0-.349.116.685.685 0 0 0-.137.479 1.727 1.727 0 0 0 .069.5 1.623 1.623 0 0 0 .185.411l-.753.212a2.13 2.13 0 0 1-.212-.527 3.2 3.2 0 0 1-.11-.829 1.747 1.747 0 0 1 .233-.945 1.226 1.226 0 0 1 .589-.466 2.466 2.466 0 0 1 .754-.116zm-.048 7.534h.719a.747.747 0 0 0 .473-.144.466.466 0 0 0 .185-.363.514.514 0 0 0-.288-.459 1.5 1.5 0 0 0-.726-.158 1.459 1.459 0 0 0-.733.158.48.48 0 0 0-.267.445.473.473 0 0 0 .171.363.685.685 0 0 0 .479.1zm-1.034.13a1.233 1.233 0 0 1-.4-.445 1.247 1.247 0 0 1-.144-.6 1.178 1.178 0 0 1 .534-.993 2.308 2.308 0 0 1 1.37-.384 2.61 2.61 0 0 1 1.116.219 1.548 1.548 0 0 1 .637.555 1.3 1.3 0 0 1 .212.685 1.082 1.082 0 0 1-.116.486.76.76 0 0 1-.26.3h1.781v1.192h-5.185v-1.007zm1.082-63.269h2.3v1.141h-2.055a1.3 1.3 0 0 0-.562.089.342.342 0 0 0-.206.329.4.4 0 0 0 .158.336.733.733 0 0 0 .445.13h2.219v1.144h-2.164a1.034 1.034 0 0 0-.479.082.342.342 0 0 0-.2.329.4.4 0 0 0 .13.3.637.637 0 0 0 .479.171h2.233v1.137h-3.712v-.986l.459-.055a2.055 2.055 0 0 1-.356-.4 1.213 1.213 0 0 1-.178-.644 1.1 1.1 0 0 1 .151-.582.911.911 0 0 1 .418-.349 1.6 1.6 0 0 1-.363-.377 1.294 1.294 0 0 1-.205-.685 1 1 0 0 1 .4-.842 1.945 1.945 0 0 1 1.1-.329zm-27.576-17.131h3.1v-3.082a.507.507 0 0 0-.507-.507H216.5v3.11a.507.507 0 0 0 .514.479zm2.6 2.452H216.5v3.11a.514.514 0 0 0 .514.514h3.1v-3.11a.514.514 0 0 0-.507-.486zm15.637 40.077h3.11v-3.11a.514.514 0 0 0-.514-.507h-3.11v3.1a.514.514 0 0 0 .511.515zm2.6 2.452h-3.11v3.11a.521.521 0 0 0 .514.514h3.11v-3.11a.521.521 0 0 0-.534-.514zm-18.22 18.211h-3.11v3.11a.507.507 0 0 0 .514.507h3.1v-3.11a.507.507 0 0 0-.527-.507zm-2.6-2.452h3.1v-3.11a.514.514 0 0 0-.507-.514h-3.11v3.11a.514.514 0 0 0 .493.514zm15.226-39.508a.507.507 0 0 0-.514-.507h-3.1v18.213h-6.069v3.1a.507.507 0 0 0 .507.514h5.562v14.589h-6.069v3.11a.514.514 0 0 0 .507.514h5.562v11.647a2.966 2.966 0 0 1-2.986 2.932h-9.178v3.11a.514.514 0 0 0 .514.514h15.247zm2.986 3.082h3.11v-3.082a.514.514 0 0 0-.514-.507h-3.11v3.11a.514.514 0 0 0 .519.48zm-.514-21.836v3.11a.521.521 0 0 0 .514.514h3.11v-3.11a.521.521 0 0 0-.514-.514zm0-6.069v3.11a.514.514 0 0 0 .514.507h3.11v-3.11a.514.514 0 0 0-.514-.507zm0-2.966a.521.521 0 0 0 .514.514h3.11v-3.11a.521.521 0 0 0-.514-.514h-3.11zm-8.521.555v-6.116h11.644a2.966 2.966 0 0 1 2.966 2.966v15.254h3.1a2.966 2.966 0 0 1 2.966 2.959v5.562h-6.165v12.144h-6.02v9.692h3.11a2.959 2.959 0 0 1 2.966 2.959v11.644H234.7v30.35h-17.684a2.966 2.966 0 0 1-2.966-2.966v-5.569h11.644a.514.514 0 0 0 .514-.514v-9.219h-3.623v6.117h-5.555a2.966 2.966 0 0 1-2.966-2.959v-11.644h12.144v-9.678H223.1a2.959 2.959 0 0 1-2.959-2.966v-3.206a7.3 7.3 0 0 1-6.076-7.2v-19.431h6.069v-3.623h-3.1a2.966 2.966 0 0 1-2.966-2.966v-11.589zm0 17.665v-14.746a.514.514 0 0 0-.514-.507h-3.11v18.213h-6.069v16.987a4.849 4.849 0 1 0 9.692 0v-13.364h12.144v-3.11a.521.521 0 0 0-.514-.514h-8.692a2.952 2.952 0 0 1-2.959-2.98zm2.452 0a.507.507 0 0 0 .507.507h15.254v-3.11a.507.507 0 0 0-.514-.507h-8.665a2.966 2.966 0 0 1-2.966-2.966v-14.74a.514.514 0 0 0-.514-.514h-3.1zm-8.521 6.582h2.46v13.363a1.226 1.226 0 0 1-2.452 0z" transform="rotate(90 213.445 -.605)" style="fill:#007fff"/>
</svg>
