<svg xmlns="http://www.w3.org/2000/svg" width="96.044" height="33.676" viewBox="0 0 96.044 33.676">
    <path data-name="Path 26689" d="M102.34 492h-3.192v3.192a.521.521 0 0 0 .527.521h3.192v-3.192a.521.521 0 0 0-.527-.521zm-2.665-2.52h3.192v-3.18a.527.527 0 0 0-.527-.527h-3.192v3.192a.527.527 0 0 0 .557.515zm-16.039-41.123h-3.192v3.192a.521.521 0 0 0 .527.521h3.192v-3.192a.521.521 0 0 0-.527-.521zm-2.665-2.52h3.192v-3.192a.527.527 0 0 0-.527-.527h-3.192v3.192a.527.527 0 0 0 .527.527zm18.734-18.7h3.195v-3.216a.527.527 0 0 0-.527-.527h-3.195v3.2a.521.521 0 0 0 .527.545zm2.665 2.52h-3.192v3.192a.527.527 0 0 0 .527.527h3.195v-3.196a.527.527 0 0 0-.557-.527zm-15.663 40.577a.521.521 0 0 0 .527.521h3.192V452.07h6.233v-3.192a.521.521 0 0 0-.527-.521h-5.706v-14.985h6.233v-3.192a.527.527 0 0 0-.527-.527h-5.706v-11.938a3.028 3.028 0 0 1 3.028-3.028h9.424v-3.192a.527.527 0 0 0-.527-.527H86.677zm-3.028-3.2h-3.235v3.2a.521.521 0 0 0 .527.521h3.192v-3.192a.527.527 0 0 0-.527-.509zm.527 22.41V486.3a.527.527 0 0 0-.527-.527h-3.235v3.192a.527.527 0 0 0 .527.527zm0 6.232v-3.192a.521.521 0 0 0-.527-.521h-3.235v3.192a.521.521 0 0 0 .527.521zm0 3.028a.527.527 0 0 0-.527-.527h-3.235v3.265a.527.527 0 0 0 .527.527h3.192zm8.752-.569v6.335H80.971a3.028 3.028 0 0 1-3.028-3.028v-15.678h-3.21a3.028 3.028 0 0 1-3.028-3.028v-5.712h6.269v-12.483h6.19v-9.951h-3.193a3.028 3.028 0 0 1-3.028-3.028V439.6h6.239v-31.17h18.171a3.028 3.028 0 0 1 3.028 3.028v5.712H93.442a.527.527 0 0 0-.527.527v9.467h3.719v-6.275h5.706a3.028 3.028 0 0 1 3.028 3.028v11.95H92.915v9.945H96.1a3.028 3.028 0 0 1 3.028 3.028v3.3a7.492 7.492 0 0 1 6.232 7.389v19.957h-6.212v3.786h3.192a3.028 3.028 0 0 1 3.028 3.028v11.9zm0-18.171v15.146a.521.521 0 0 0 .527.521h3.192v-18.619h6.233v-17.444a4.979 4.979 0 1 0-9.951 0v13.725H80.444v3.192a.527.527 0 0 0 .527.527h8.9a3.028 3.028 0 0 1 3.047 3.04zm-2.52 0a.521.521 0 0 0-.527-.521H74.206v3.192a.521.521 0 0 0 .527.521h8.9a3.028 3.028 0 0 1 3.028 3.028v15.146a.527.527 0 0 0 .527.527h3.192zm8.752-6.759h-2.52v-13.64a1.26 1.26 0 0 1 2.52 0z" transform="rotate(-90 -151.525 256.905)" style="fill:#007fff"/>
</svg>
